<svg width="20" height="20" viewBox="0 0 20 20" fill="none" xmlns="http://www.w3.org/2000/svg">
<path d="M3.74107 5.4833H2.58036C2.42644 5.4833 2.27882 5.42216 2.16998 5.31332C2.06114 5.20448 2 5.05687 2 4.90295C2 4.74903 2.06114 4.60141 2.16998 4.49257C2.27882 4.38373 2.42644 4.32259 2.58036 4.32259H7.22321V2.58036C7.22321 2.42644 7.28436 2.27882 7.3932 2.16998C7.50204 2.06114 7.64965 2 7.80357 2H12.4464C12.6003 2 12.748 2.06114 12.8568 2.16998C12.9656 2.27882 13.0268 2.42644 13.0268 2.58036V4.32259H17.6696C17.8236 4.32259 17.9712 4.38373 18.08 4.49257C18.1889 4.60141 18.25 4.74903 18.25 4.90295C18.25 5.05687 18.1889 5.20448 18.08 5.31332C17.9712 5.42216 17.8236 5.4833 17.6696 5.4833H16.5089V17.6708C16.5089 17.8247 16.4478 17.9723 16.3389 18.0812C16.2301 18.19 16.0825 18.2512 15.9286 18.2512H4.32143C4.16751 18.2512 4.01989 18.19 3.91105 18.0812C3.80222 17.9723 3.74107 17.8247 3.74107 17.6708V5.4833ZM11.8661 4.32259V3.16187H8.38393V4.32259H11.8661ZM4.90179 17.0904H15.3482V5.4833H4.90179V17.0904ZM8.38393 14.769C8.23001 14.769 8.08239 14.7079 7.97355 14.599C7.86472 14.4902 7.80357 14.3426 7.80357 14.1887V8.38509C7.80357 8.23117 7.86472 8.08355 7.97355 7.97471C8.08239 7.86588 8.23001 7.80473 8.38393 7.80473C8.53785 7.80473 8.68546 7.86588 8.7943 7.97471C8.90314 8.08355 8.96429 8.23117 8.96429 8.38509V14.1887C8.96429 14.3426 8.90314 14.4902 8.7943 14.599C8.68546 14.7079 8.53785 14.769 8.38393 14.769ZM11.8661 14.769C11.7122 14.769 11.5645 14.7079 11.4557 14.599C11.3469 14.4902 11.2857 14.3426 11.2857 14.1887V8.38509C11.2857 8.23117 11.3469 8.08355 11.4557 7.97471C11.5645 7.86588 11.7122 7.80473 11.8661 7.80473C12.02 7.80473 12.1676 7.86588 12.2764 7.97471C12.3853 8.08355 12.4464 8.23117 12.4464 8.38509V14.1887C12.4464 14.3426 12.3853 14.4902 12.2764 14.599C12.1676 14.7079 12.02 14.769 11.8661 14.769Z" fill="#323232" fill-opacity="0.6"/>
</svg>
