<svg width="20" height="20" viewBox="0 0 20 20" fill="none" xmlns="http://www.w3.org/2000/svg">
<path d="M10.125 1.875C8.51803 1.875 6.94714 2.35152 5.611 3.24431C4.27485 4.1371 3.23344 5.40605 2.61848 6.8907C2.00352 8.37535 1.84262 10.009 2.15612 11.5851C2.46963 13.1612 3.24346 14.6089 4.37976 15.7452C5.51606 16.8815 6.9638 17.6554 8.5399 17.9689C10.116 18.2824 11.7497 18.1215 13.2343 17.5065C14.719 16.8916 15.9879 15.8502 16.8807 14.514C17.7735 13.1779 18.25 11.607 18.25 10C18.2477 7.84581 17.391 5.78051 15.8677 4.25727C14.3445 2.73403 12.2792 1.87727 10.125 1.875ZM10.125 16.875C8.76526 16.875 7.43605 16.4718 6.30546 15.7164C5.17487 14.9609 4.29368 13.8872 3.77333 12.6309C3.25298 11.3747 3.11683 9.99237 3.3821 8.65875C3.64738 7.32513 4.30216 6.10013 5.26364 5.13864C6.22513 4.17716 7.45014 3.52237 8.78376 3.2571C10.1174 2.99183 11.4997 3.12798 12.756 3.64833C14.0122 4.16868 15.0859 5.04987 15.8414 6.18045C16.5968 7.31104 17 8.64025 17 10C16.9979 11.8227 16.2729 13.5702 14.9841 14.8591C13.6952 16.1479 11.9477 16.8729 10.125 16.875ZM11.375 13.75C11.375 13.9158 11.3092 14.0747 11.1919 14.1919C11.0747 14.3092 10.9158 14.375 10.75 14.375C10.4185 14.375 10.1005 14.2433 9.86612 14.0089C9.6317 13.7745 9.5 13.4565 9.5 13.125V10C9.33424 10 9.17527 9.93415 9.05806 9.81694C8.94085 9.69973 8.875 9.54076 8.875 9.375C8.875 9.20924 8.94085 9.05027 9.05806 8.93306C9.17527 8.81585 9.33424 8.75 9.5 8.75C9.83152 8.75 10.1495 8.8817 10.3839 9.11612C10.6183 9.35054 10.75 9.66848 10.75 10V13.125C10.9158 13.125 11.0747 13.1908 11.1919 13.3081C11.3092 13.4253 11.375 13.5842 11.375 13.75ZM8.875 6.5625C8.875 6.37708 8.92999 6.19582 9.033 6.04165C9.13601 5.88748 9.28243 5.76732 9.45374 5.69636C9.62504 5.62541 9.81354 5.60684 9.9954 5.64301C10.1773 5.67919 10.3443 5.76848 10.4754 5.89959C10.6065 6.0307 10.6958 6.19775 10.732 6.3796C10.7682 6.56146 10.7496 6.74996 10.6786 6.92127C10.6077 7.09257 10.4875 7.23899 10.3334 7.342C10.1792 7.44502 9.99792 7.5 9.8125 7.5C9.56386 7.5 9.32541 7.40123 9.14959 7.22541C8.97378 7.0496 8.875 6.81114 8.875 6.5625Z" fill="#323232" fill-opacity="0.5"/>
</svg>
