<svg width="16" height="16" viewBox="0 0 16 16" fill="none" xmlns="http://www.w3.org/2000/svg">
<path d="M14.5 4.5L8 6.5L1.5 4.5" stroke="#5B6179"/>
<path d="M11.25 3.5L4.75 5.5" stroke="#5B6179"/>
<path d="M1.5 10.7614V5.23857C1.5 4.79957 1.78632 4.4119 2.20591 4.2828L7.41183 2.68098C7.79508 2.56305 8.20492 2.56305 8.58817 2.68098L13.7941 4.2828C14.2137 4.4119 14.5 4.79957 14.5 5.23857V10.7614C14.5 11.2004 14.2137 11.5881 13.7941 11.7172L8.29409 13.4095C8.10246 13.4685 7.89754 13.4685 7.70591 13.4095L2.20591 11.7172C1.78632 11.5881 1.5 11.2004 1.5 10.7614Z" stroke="#5B6179" stroke-linecap="round" stroke-linejoin="round"/>
<path d="M8 6.5V13.5" stroke="#5B6179"/>
</svg>
